<svg width="24" height="24" viewBox="0 0 24 24" fill="none" xmlns="http://www.w3.org/2000/svg">
<path d="M20 4H4C2.89 4 2.01 4.89 2.01 6L2 18C2 19.11 2.89 20 4 20H20C21.11 20 22 19.11 22 18V6C22 4.89 21.11 4 20 4ZM20 17C20 17.55 19.55 18 19 18H5C4.45 18 4 17.55 4 17V7C4 6.45 4.45 6 5 6H19C19.55 6 20 6.45 20 7V17Z" fill="#2474E5"/>
<path d="M9.33325 10.5C9.33325 10.7733 9.55992 11 9.83325 11H10.8333V13.5C10.8333 13.7733 11.0599 14 11.3333 14C11.6066 14 11.8333 13.7733 11.8333 13.5V11H12.8333C13.1066 11 13.3333 10.7733 13.3333 10.5C13.3333 10.2267 13.1066 10 12.8333 10H9.83325C9.55992 10 9.33325 10.2267 9.33325 10.5ZM7.99992 10H5.99992C5.63325 10 5.33325 10.3 5.33325 10.6667V13.5C5.33325 13.7733 5.55992 14 5.83325 14C6.10659 14 6.33325 13.7733 6.33325 13.5V13H7.66659V13.5C7.66659 13.7733 7.89325 14 8.16659 14C8.43992 14 8.66659 13.7733 8.66659 13.5V10.6667C8.66659 10.3 8.36659 10 7.99992 10ZM7.66659 12H6.33325V11H7.66659V12ZM17.9999 10H14.9999C14.6333 10 14.3333 10.3 14.3333 10.6667V13.5C14.3333 13.7733 14.5599 14 14.8333 14C15.1066 14 15.3333 13.7733 15.3333 13.5V11H15.9999V12.8333C15.9999 13.1067 16.2266 13.3333 16.4999 13.3333C16.7733 13.3333 16.9999 13.1067 16.9999 12.8333V10.9933H17.6666V13.5C17.6666 13.7733 17.8933 14 18.1666 14C18.4399 14 18.6666 13.7733 18.6666 13.5V10.6667C18.6666 10.3 18.3666 10 17.9999 10Z" fill="#2474E5"/>
</svg>
