<svg width="24" height="24" viewBox="0 0 24 24" fill="none" xmlns="http://www.w3.org/2000/svg">
<path d="M21.65 7.64954L18.86 4.85954C18.54 4.53954 18 4.75954 18 5.20954V6.99954H4C3.45 6.99954 3 7.44954 3 7.99954C3 8.54954 3.45 8.99954 4 8.99954H18V10.7895C18 11.2395 18.54 11.4595 18.85 11.1395L21.64 8.34954C21.84 8.15954 21.84 7.83954 21.65 7.64954Z" fill="#2474E5"/>
<path d="M2.35001 16.3495L5.14001 19.1395C5.46001 19.4595 6.00001 19.2395 6.00001 18.7895V16.9995H20C20.55 16.9995 21 16.5495 21 15.9995C21 15.4495 20.55 14.9995 20 14.9995H6.00001V13.2095C6.00001 12.7595 5.46001 12.5395 5.15001 12.8595L2.36001 15.6495C2.16001 15.8395 2.16001 16.1595 2.35001 16.3495Z" fill="#2474E5"/>
</svg>
